<mxfile host="Electron" modified="2023-06-07T14:40:25.963Z" agent="Mozilla/5.0 (Windows NT 10.0; Win64; x64) AppleWebKit/537.36 (KHTML, like Gecko) draw.io/21.2.8 Chrome/112.0.5615.165 Electron/24.2.0 Safari/537.36" etag="XKVT5z-yu4RoB3PxYFoD" version="21.2.8" type="device">
  <diagram name="Página-1" id="lxS2CNAL6hp_V3PkIYL_">
    <mxGraphModel dx="657" dy="817" grid="1" gridSize="10" guides="1" tooltips="1" connect="1" arrows="1" fold="1" page="1" pageScale="1" pageWidth="827" pageHeight="1169" math="0" shadow="0">
      <root>
        <mxCell id="0" />
        <mxCell id="1" parent="0" />
        <mxCell id="cMxngbdDAtCsvRXYrGeU-5" value="MedioPrensa" style="rounded=0;whiteSpace=wrap;html=1;" vertex="1" parent="1">
          <mxGeometry x="110" y="29" width="80" height="30" as="geometry" />
        </mxCell>
        <mxCell id="cMxngbdDAtCsvRXYrGeU-6" value="NombreMP" style="ellipse;whiteSpace=wrap;html=1;" vertex="1" parent="1">
          <mxGeometry x="20" y="29" width="80" height="40" as="geometry" />
        </mxCell>
        <mxCell id="cMxngbdDAtCsvRXYrGeU-7" value="AñoFundacion" style="ellipse;whiteSpace=wrap;html=1;" vertex="1" parent="1">
          <mxGeometry x="20" y="69" width="80" height="40" as="geometry" />
        </mxCell>
        <mxCell id="cMxngbdDAtCsvRXYrGeU-8" value="Cobertura" style="ellipse;whiteSpace=wrap;html=1;" vertex="1" parent="1">
          <mxGeometry x="20" y="109" width="80" height="40" as="geometry" />
        </mxCell>
        <mxCell id="cMxngbdDAtCsvRXYrGeU-11" value="Fundador" style="rounded=0;whiteSpace=wrap;html=1;" vertex="1" parent="1">
          <mxGeometry x="405" y="29" width="80" height="30" as="geometry" />
        </mxCell>
        <mxCell id="cMxngbdDAtCsvRXYrGeU-12" value="Nombre" style="ellipse;whiteSpace=wrap;html=1;" vertex="1" parent="1">
          <mxGeometry x="495" y="28" width="80" height="40" as="geometry" />
        </mxCell>
        <mxCell id="cMxngbdDAtCsvRXYrGeU-13" value="Fundador_ID" style="ellipse;whiteSpace=wrap;html=1;" vertex="1" parent="1">
          <mxGeometry x="495" y="68" width="80" height="40" as="geometry" />
        </mxCell>
        <mxCell id="cMxngbdDAtCsvRXYrGeU-14" value="Ubicacion" style="rounded=0;whiteSpace=wrap;html=1;" vertex="1" parent="1">
          <mxGeometry x="110" y="279" width="80" height="30" as="geometry" />
        </mxCell>
        <mxCell id="cMxngbdDAtCsvRXYrGeU-15" value="Pais" style="ellipse;whiteSpace=wrap;html=1;" vertex="1" parent="1">
          <mxGeometry x="20" y="319" width="80" height="40" as="geometry" />
        </mxCell>
        <mxCell id="cMxngbdDAtCsvRXYrGeU-16" value="Region" style="ellipse;whiteSpace=wrap;html=1;" vertex="1" parent="1">
          <mxGeometry x="20" y="359" width="80" height="40" as="geometry" />
        </mxCell>
        <mxCell id="cMxngbdDAtCsvRXYrGeU-17" value="Ciudad" style="ellipse;whiteSpace=wrap;html=1;" vertex="1" parent="1">
          <mxGeometry x="20" y="399" width="80" height="40" as="geometry" />
        </mxCell>
        <mxCell id="cMxngbdDAtCsvRXYrGeU-18" value="Continente" style="ellipse;whiteSpace=wrap;html=1;" vertex="1" parent="1">
          <mxGeometry x="20" y="279" width="80" height="40" as="geometry" />
        </mxCell>
        <mxCell id="cMxngbdDAtCsvRXYrGeU-19" value="Esta" style="rhombus;whiteSpace=wrap;html=1;" vertex="1" parent="1">
          <mxGeometry x="125" y="139" width="50" height="50" as="geometry" />
        </mxCell>
        <mxCell id="cMxngbdDAtCsvRXYrGeU-20" style="rounded=0;orthogonalLoop=1;jettySize=auto;html=1;exitX=0.5;exitY=1;exitDx=0;exitDy=0;entryX=0.5;entryY=0;entryDx=0;entryDy=0;endArrow=none;endFill=0;" edge="1" parent="1" source="cMxngbdDAtCsvRXYrGeU-5" target="cMxngbdDAtCsvRXYrGeU-19">
          <mxGeometry relative="1" as="geometry">
            <mxPoint x="-70" y="309" as="sourcePoint" />
            <mxPoint x="-70" y="379" as="targetPoint" />
          </mxGeometry>
        </mxCell>
        <mxCell id="cMxngbdDAtCsvRXYrGeU-21" style="rounded=0;orthogonalLoop=1;jettySize=auto;html=1;exitX=0.5;exitY=0;exitDx=0;exitDy=0;entryX=0.5;entryY=1;entryDx=0;entryDy=0;endArrow=none;endFill=0;" edge="1" parent="1" source="cMxngbdDAtCsvRXYrGeU-14" target="cMxngbdDAtCsvRXYrGeU-19">
          <mxGeometry relative="1" as="geometry">
            <mxPoint x="160" y="69" as="sourcePoint" />
            <mxPoint x="160" y="159" as="targetPoint" />
          </mxGeometry>
        </mxCell>
        <mxCell id="cMxngbdDAtCsvRXYrGeU-22" value="Fundado" style="rhombus;whiteSpace=wrap;html=1;" vertex="1" parent="1">
          <mxGeometry x="280" y="18" width="50" height="50" as="geometry" />
        </mxCell>
        <mxCell id="cMxngbdDAtCsvRXYrGeU-24" style="rounded=0;orthogonalLoop=1;jettySize=auto;html=1;exitX=0;exitY=0.5;exitDx=0;exitDy=0;entryX=1;entryY=0.5;entryDx=0;entryDy=0;endArrow=none;endFill=0;" edge="1" parent="1" source="cMxngbdDAtCsvRXYrGeU-22" target="cMxngbdDAtCsvRXYrGeU-5">
          <mxGeometry relative="1" as="geometry">
            <mxPoint x="160" y="289" as="sourcePoint" />
            <mxPoint x="160" y="199" as="targetPoint" />
          </mxGeometry>
        </mxCell>
        <mxCell id="cMxngbdDAtCsvRXYrGeU-25" style="rounded=0;orthogonalLoop=1;jettySize=auto;html=1;exitX=0;exitY=0.5;exitDx=0;exitDy=0;entryX=1;entryY=0.5;entryDx=0;entryDy=0;endArrow=none;endFill=0;" edge="1" parent="1" source="cMxngbdDAtCsvRXYrGeU-11" target="cMxngbdDAtCsvRXYrGeU-22">
          <mxGeometry relative="1" as="geometry">
            <mxPoint x="235" y="298" as="sourcePoint" />
            <mxPoint x="235" y="208" as="targetPoint" />
          </mxGeometry>
        </mxCell>
        <mxCell id="cMxngbdDAtCsvRXYrGeU-26" value="Cuenta" style="rounded=0;whiteSpace=wrap;html=1;" vertex="1" parent="1">
          <mxGeometry x="405" y="279" width="80" height="30" as="geometry" />
        </mxCell>
        <mxCell id="cMxngbdDAtCsvRXYrGeU-27" value="Tipo" style="ellipse;whiteSpace=wrap;html=1;" vertex="1" parent="1">
          <mxGeometry x="495" y="279" width="80" height="40" as="geometry" />
        </mxCell>
        <mxCell id="cMxngbdDAtCsvRXYrGeU-28" value="Link" style="ellipse;whiteSpace=wrap;html=1;" vertex="1" parent="1">
          <mxGeometry x="495" y="319" width="80" height="40" as="geometry" />
        </mxCell>
        <mxCell id="cMxngbdDAtCsvRXYrGeU-29" value="Cuentas" style="rhombus;whiteSpace=wrap;html=1;" vertex="1" parent="1">
          <mxGeometry x="305" y="139" width="50" height="50" as="geometry" />
        </mxCell>
        <mxCell id="cMxngbdDAtCsvRXYrGeU-30" style="rounded=0;orthogonalLoop=1;jettySize=auto;html=1;exitX=0;exitY=0;exitDx=0;exitDy=0;entryX=1;entryY=1;entryDx=0;entryDy=0;endArrow=none;endFill=0;" edge="1" parent="1" source="cMxngbdDAtCsvRXYrGeU-29" target="cMxngbdDAtCsvRXYrGeU-5">
          <mxGeometry relative="1" as="geometry">
            <mxPoint x="250" y="55" as="sourcePoint" />
            <mxPoint x="200" y="54" as="targetPoint" />
          </mxGeometry>
        </mxCell>
        <mxCell id="cMxngbdDAtCsvRXYrGeU-31" style="rounded=0;orthogonalLoop=1;jettySize=auto;html=1;exitX=1;exitY=0.5;exitDx=0;exitDy=0;entryX=0;entryY=0.5;entryDx=0;entryDy=0;endArrow=none;endFill=0;" edge="1" parent="1" source="cMxngbdDAtCsvRXYrGeU-29" target="cMxngbdDAtCsvRXYrGeU-26">
          <mxGeometry relative="1" as="geometry">
            <mxPoint x="342.5" y="176.5" as="sourcePoint" />
            <mxPoint x="265" y="69" as="targetPoint" />
          </mxGeometry>
        </mxCell>
        <mxCell id="cMxngbdDAtCsvRXYrGeU-32" value="SitioWeb" style="rounded=0;whiteSpace=wrap;html=1;" vertex="1" parent="1">
          <mxGeometry x="225" y="449" width="80" height="30" as="geometry" />
        </mxCell>
        <mxCell id="cMxngbdDAtCsvRXYrGeU-33" style="rounded=0;orthogonalLoop=1;jettySize=auto;html=1;exitX=0.75;exitY=1;exitDx=0;exitDy=0;endArrow=none;endFill=0;entryX=0;entryY=0;entryDx=0;entryDy=0;" edge="1" parent="1" source="cMxngbdDAtCsvRXYrGeU-5" target="cMxngbdDAtCsvRXYrGeU-34">
          <mxGeometry relative="1" as="geometry">
            <mxPoint x="288" y="187" as="sourcePoint" />
            <mxPoint x="220" y="259" as="targetPoint" />
          </mxGeometry>
        </mxCell>
        <mxCell id="cMxngbdDAtCsvRXYrGeU-34" value="Tiene" style="rhombus;whiteSpace=wrap;html=1;" vertex="1" parent="1">
          <mxGeometry x="240" y="330" width="50" height="50" as="geometry" />
        </mxCell>
        <mxCell id="cMxngbdDAtCsvRXYrGeU-35" style="rounded=0;orthogonalLoop=1;jettySize=auto;html=1;exitX=0.5;exitY=0;exitDx=0;exitDy=0;endArrow=none;endFill=0;entryX=0.5;entryY=1;entryDx=0;entryDy=0;" edge="1" parent="1" source="cMxngbdDAtCsvRXYrGeU-32" target="cMxngbdDAtCsvRXYrGeU-34">
          <mxGeometry relative="1" as="geometry">
            <mxPoint x="180" y="69" as="sourcePoint" />
            <mxPoint x="263" y="322" as="targetPoint" />
          </mxGeometry>
        </mxCell>
        <mxCell id="cMxngbdDAtCsvRXYrGeU-37" value="Link" style="ellipse;whiteSpace=wrap;html=1;" vertex="1" parent="1">
          <mxGeometry x="310" y="444" width="80" height="40" as="geometry" />
        </mxCell>
        <mxCell id="cMxngbdDAtCsvRXYrGeU-43" value="Pagina" style="rounded=0;whiteSpace=wrap;html=1;" vertex="1" parent="1">
          <mxGeometry x="225" y="640" width="80" height="30" as="geometry" />
        </mxCell>
        <mxCell id="cMxngbdDAtCsvRXYrGeU-44" value="Categoria" style="ellipse;whiteSpace=wrap;html=1;" vertex="1" parent="1">
          <mxGeometry x="310" y="635" width="80" height="40" as="geometry" />
        </mxCell>
        <mxCell id="cMxngbdDAtCsvRXYrGeU-45" value="URL_Principal" style="ellipse;whiteSpace=wrap;html=1;" vertex="1" parent="1">
          <mxGeometry x="310" y="675" width="80" height="40" as="geometry" />
        </mxCell>
        <mxCell id="cMxngbdDAtCsvRXYrGeU-46" value="Cantidad" style="ellipse;whiteSpace=wrap;html=1;" vertex="1" parent="1">
          <mxGeometry x="495" y="495" width="80" height="40" as="geometry" />
        </mxCell>
        <mxCell id="cMxngbdDAtCsvRXYrGeU-48" value="Compuestas" style="rhombus;whiteSpace=wrap;html=1;" vertex="1" parent="1">
          <mxGeometry x="240" y="535" width="50" height="50" as="geometry" />
        </mxCell>
        <mxCell id="cMxngbdDAtCsvRXYrGeU-49" style="rounded=0;orthogonalLoop=1;jettySize=auto;html=1;exitX=0.5;exitY=1;exitDx=0;exitDy=0;endArrow=none;endFill=0;entryX=0.5;entryY=0;entryDx=0;entryDy=0;" edge="1" parent="1" source="cMxngbdDAtCsvRXYrGeU-32" target="cMxngbdDAtCsvRXYrGeU-48">
          <mxGeometry relative="1" as="geometry">
            <mxPoint x="275" y="459" as="sourcePoint" />
            <mxPoint x="275" y="419" as="targetPoint" />
          </mxGeometry>
        </mxCell>
        <mxCell id="cMxngbdDAtCsvRXYrGeU-50" style="rounded=0;orthogonalLoop=1;jettySize=auto;html=1;exitX=0.5;exitY=1;exitDx=0;exitDy=0;endArrow=none;endFill=0;entryX=0.5;entryY=0;entryDx=0;entryDy=0;" edge="1" parent="1" source="cMxngbdDAtCsvRXYrGeU-48" target="cMxngbdDAtCsvRXYrGeU-43">
          <mxGeometry relative="1" as="geometry">
            <mxPoint x="265" y="620.0000000000002" as="sourcePoint" />
            <mxPoint x="285" y="499" as="targetPoint" />
          </mxGeometry>
        </mxCell>
        <mxCell id="cMxngbdDAtCsvRXYrGeU-51" value="XPATH_Fecha" style="ellipse;whiteSpace=wrap;html=1;" vertex="1" parent="1">
          <mxGeometry x="310" y="715" width="80" height="40" as="geometry" />
        </mxCell>
        <mxCell id="cMxngbdDAtCsvRXYrGeU-52" value="XPATH_Titulo" style="ellipse;whiteSpace=wrap;html=1;" vertex="1" parent="1">
          <mxGeometry x="310" y="755" width="80" height="40" as="geometry" />
        </mxCell>
        <mxCell id="cMxngbdDAtCsvRXYrGeU-53" value="XPATH_Contenido" style="ellipse;whiteSpace=wrap;html=1;" vertex="1" parent="1">
          <mxGeometry x="310" y="795" width="80" height="40" as="geometry" />
        </mxCell>
        <mxCell id="cMxngbdDAtCsvRXYrGeU-56" value="1" style="text;html=1;align=center;verticalAlign=middle;resizable=0;points=[];autosize=1;strokeColor=none;fillColor=none;" vertex="1" parent="1">
          <mxGeometry x="465" y="210" width="30" height="30" as="geometry" />
        </mxCell>
        <mxCell id="cMxngbdDAtCsvRXYrGeU-57" value="N" style="text;html=1;align=center;verticalAlign=middle;resizable=0;points=[];autosize=1;strokeColor=none;fillColor=none;" vertex="1" parent="1">
          <mxGeometry x="510" y="210" width="30" height="30" as="geometry" />
        </mxCell>
        <mxCell id="cMxngbdDAtCsvRXYrGeU-58" value="N" style="text;html=1;align=center;verticalAlign=middle;resizable=0;points=[];autosize=1;strokeColor=none;fillColor=none;" vertex="1" parent="1">
          <mxGeometry x="375" y="19" width="30" height="30" as="geometry" />
        </mxCell>
        <mxCell id="cMxngbdDAtCsvRXYrGeU-60" value="N" style="text;html=1;align=center;verticalAlign=middle;resizable=0;points=[];autosize=1;strokeColor=none;fillColor=none;" vertex="1" parent="1">
          <mxGeometry x="190" y="18" width="30" height="30" as="geometry" />
        </mxCell>
        <mxCell id="cMxngbdDAtCsvRXYrGeU-61" value="1" style="text;html=1;align=center;verticalAlign=middle;resizable=0;points=[];autosize=1;strokeColor=none;fillColor=none;" vertex="1" parent="1">
          <mxGeometry x="193" y="48" width="30" height="30" as="geometry" />
        </mxCell>
        <mxCell id="cMxngbdDAtCsvRXYrGeU-62" value="N" style="text;html=1;align=center;verticalAlign=middle;resizable=0;points=[];autosize=1;strokeColor=none;fillColor=none;" vertex="1" parent="1">
          <mxGeometry x="388" y="249" width="30" height="30" as="geometry" />
        </mxCell>
        <mxCell id="cMxngbdDAtCsvRXYrGeU-63" value="1" style="text;html=1;align=center;verticalAlign=middle;resizable=0;points=[];autosize=1;strokeColor=none;fillColor=none;" vertex="1" parent="1">
          <mxGeometry x="140" y="57" width="30" height="30" as="geometry" />
        </mxCell>
        <mxCell id="cMxngbdDAtCsvRXYrGeU-64" value="N" style="text;html=1;align=center;verticalAlign=middle;resizable=0;points=[];autosize=1;strokeColor=none;fillColor=none;" vertex="1" parent="1">
          <mxGeometry x="144" y="250" width="30" height="30" as="geometry" />
        </mxCell>
        <mxCell id="cMxngbdDAtCsvRXYrGeU-65" value="1" style="text;html=1;align=center;verticalAlign=middle;resizable=0;points=[];autosize=1;strokeColor=none;fillColor=none;" vertex="1" parent="1">
          <mxGeometry x="167" y="62" width="30" height="30" as="geometry" />
        </mxCell>
        <mxCell id="cMxngbdDAtCsvRXYrGeU-68" value="N" style="text;html=1;align=center;verticalAlign=middle;resizable=0;points=[];autosize=1;strokeColor=none;fillColor=none;" vertex="1" parent="1">
          <mxGeometry x="260" y="419" width="30" height="30" as="geometry" />
        </mxCell>
        <mxCell id="cMxngbdDAtCsvRXYrGeU-69" value="1" style="text;html=1;align=center;verticalAlign=middle;resizable=0;points=[];autosize=1;strokeColor=none;fillColor=none;" vertex="1" parent="1">
          <mxGeometry x="260" y="479" width="30" height="30" as="geometry" />
        </mxCell>
        <mxCell id="cMxngbdDAtCsvRXYrGeU-70" value="N" style="text;html=1;align=center;verticalAlign=middle;resizable=0;points=[];autosize=1;strokeColor=none;fillColor=none;" vertex="1" parent="1">
          <mxGeometry x="260" y="613" width="30" height="30" as="geometry" />
        </mxCell>
        <mxCell id="cMxngbdDAtCsvRXYrGeU-71" value="TieneS" style="rhombus;whiteSpace=wrap;html=1;" vertex="1" parent="1">
          <mxGeometry x="420" y="380" width="50" height="50" as="geometry" />
        </mxCell>
        <mxCell id="cMxngbdDAtCsvRXYrGeU-73" value="Seguidores" style="rounded=0;whiteSpace=wrap;html=1;" vertex="1" parent="1">
          <mxGeometry x="406" y="495" width="80" height="30" as="geometry" />
        </mxCell>
        <mxCell id="cMxngbdDAtCsvRXYrGeU-74" style="rounded=0;orthogonalLoop=1;jettySize=auto;html=1;exitX=0.5;exitY=0;exitDx=0;exitDy=0;endArrow=none;endFill=0;entryX=0.5;entryY=1;entryDx=0;entryDy=0;" edge="1" parent="1" source="cMxngbdDAtCsvRXYrGeU-71" target="cMxngbdDAtCsvRXYrGeU-26">
          <mxGeometry relative="1" as="geometry">
            <mxPoint x="275" y="459" as="sourcePoint" />
            <mxPoint x="275" y="390" as="targetPoint" />
          </mxGeometry>
        </mxCell>
        <mxCell id="cMxngbdDAtCsvRXYrGeU-75" style="rounded=0;orthogonalLoop=1;jettySize=auto;html=1;exitX=0.5;exitY=0;exitDx=0;exitDy=0;endArrow=none;endFill=0;entryX=0.5;entryY=1;entryDx=0;entryDy=0;" edge="1" parent="1" source="cMxngbdDAtCsvRXYrGeU-73" target="cMxngbdDAtCsvRXYrGeU-71">
          <mxGeometry relative="1" as="geometry">
            <mxPoint x="285" y="469" as="sourcePoint" />
            <mxPoint x="285" y="400" as="targetPoint" />
          </mxGeometry>
        </mxCell>
        <mxCell id="cMxngbdDAtCsvRXYrGeU-77" value="Fecha" style="ellipse;whiteSpace=wrap;html=1;" vertex="1" parent="1">
          <mxGeometry x="480" y="385" width="80" height="40" as="geometry" />
        </mxCell>
        <mxCell id="cMxngbdDAtCsvRXYrGeU-78" value="1" style="text;html=1;align=center;verticalAlign=middle;resizable=0;points=[];autosize=1;strokeColor=none;fillColor=none;" vertex="1" parent="1">
          <mxGeometry x="420" y="309" width="30" height="30" as="geometry" />
        </mxCell>
        <mxCell id="cMxngbdDAtCsvRXYrGeU-79" value="1" style="text;html=1;align=center;verticalAlign=middle;resizable=0;points=[];autosize=1;strokeColor=none;fillColor=none;" vertex="1" parent="1">
          <mxGeometry x="414" y="470" width="30" height="30" as="geometry" />
        </mxCell>
      </root>
    </mxGraphModel>
  </diagram>
</mxfile>
